<svg width="130" height="25" viewBox="0 0 130 25" fill="none" xmlns="http://www.w3.org/2000/svg">
<g clip-path="url(#clip0_53_25)">
<path d="M13 0L15.8064 8.63729H24.8882L17.5409 13.9754L20.3473 22.6127L13 17.2746L5.65268 22.6127L8.45911 13.9754L1.11179 8.63729H10.1936L13 0Z" fill="#1E1E1E" fill-opacity="0.5"/>
<path d="M39 0L41.8064 8.63729H50.8882L43.5409 13.9754L46.3473 22.6127L39 17.2746L31.6527 22.6127L34.4591 13.9754L27.1118 8.63729H36.1936L39 0Z" fill="#1E1E1E" fill-opacity="0.5"/>
<path d="M65 0L67.8064 8.63729H76.8882L69.5409 13.9754L72.3473 22.6127L65 17.2746L57.6527 22.6127L60.4591 13.9754L53.1118 8.63729H62.1936L65 0Z" fill="#1E1E1E" fill-opacity="0.5"/>
<path d="M91 0L93.8064 8.63729H102.888L95.5409 13.9754L98.3473 22.6127L91 17.2746L83.6527 22.6127L86.4591 13.9754L79.1118 8.63729H88.1936L91 0Z" fill="#1E1E1E" fill-opacity="0.5"/>
<path d="M117 0L119.806 8.63729H128.888L121.541 13.9754L124.347 22.6127L117 17.2746L109.653 22.6127L112.459 13.9754L105.112 8.63729H114.194L117 0Z" fill="#1E1E1E" fill-opacity="0.5"/>
</g>
<defs>
<clipPath id="clip0_53_25">
<rect width="129" height="25" fill="white" transform="translate(0.5)"/>
</clipPath>
</defs>
</svg>
