<svg width="22" height="22" viewBox="0 0 22 22" fill="none" xmlns="http://www.w3.org/2000/svg">
<path d="M11.0024 5.33081C7.89697 5.33081 5.39209 7.83569 5.39209 10.9412C5.39209 14.0466 7.89697 16.5515 11.0024 16.5515C14.1079 16.5515 16.6128 14.0466 16.6128 10.9412C16.6128 7.83569 14.1079 5.33081 11.0024 5.33081ZM11.0024 14.5886C8.99561 14.5886 7.35498 12.9529 7.35498 10.9412C7.35498 8.92944 8.99072 7.2937 11.0024 7.2937C13.0142 7.2937 14.6499 8.92944 14.6499 10.9412C14.6499 12.9529 13.0093 14.5886 11.0024 14.5886ZM18.1509 5.10132C18.1509 5.82886 17.5649 6.40991 16.8423 6.40991C16.1147 6.40991 15.5337 5.82397 15.5337 5.10132C15.5337 4.37866 16.1196 3.79272 16.8423 3.79272C17.5649 3.79272 18.1509 4.37866 18.1509 5.10132ZM21.8667 6.42944C21.7837 4.67651 21.3833 3.12378 20.0991 1.84448C18.8198 0.565185 17.2671 0.164795 15.5142 0.0769043C13.7075 -0.0256348 8.29248 -0.0256348 6.48584 0.0769043C4.73779 0.159912 3.18506 0.560303 1.90088 1.8396C0.616699 3.1189 0.221191 4.67163 0.133301 6.42456C0.0307617 8.2312 0.0307617 13.6462 0.133301 15.4529C0.216309 17.2058 0.616699 18.7585 1.90088 20.0378C3.18506 21.3171 4.73291 21.7175 6.48584 21.8054C8.29248 21.908 13.7075 21.908 15.5142 21.8054C17.2671 21.7224 18.8198 21.322 20.0991 20.0378C21.3784 18.7585 21.7788 17.2058 21.8667 15.4529C21.9692 13.6462 21.9692 8.23608 21.8667 6.42944ZM19.5327 17.3914C19.1519 18.3484 18.4146 19.0857 17.4526 19.4714C16.0122 20.0427 12.5942 19.9109 11.0024 19.9109C9.41064 19.9109 5.98779 20.0378 4.55225 19.4714C3.59521 19.0906 2.85791 18.3533 2.47217 17.3914C1.90088 15.9509 2.03271 12.533 2.03271 10.9412C2.03271 9.34937 1.90576 5.92651 2.47217 4.49097C2.85303 3.53394 3.59033 2.79663 4.55225 2.41089C5.99268 1.8396 9.41064 1.97144 11.0024 1.97144C12.5942 1.97144 16.0171 1.84448 17.4526 2.41089C18.4097 2.79175 19.147 3.52905 19.5327 4.49097C20.104 5.9314 19.9722 9.34937 19.9722 10.9412C19.9722 12.533 20.104 15.9558 19.5327 17.3914Z" fill="#2C4D53"/>
</svg>
