<svg width="23" height="22" viewBox="0 0 23 22" fill="none" xmlns="http://www.w3.org/2000/svg">
<path d="M19.7126 0.00366211H2.52515C1.90355 0.00366211 1.3074 0.250592 0.867865 0.690131C0.428327 1.12967 0.181396 1.72581 0.181396 2.34741L0.181396 19.5349C0.181396 20.1565 0.428327 20.7527 0.867865 21.1922C1.3074 21.6317 1.90355 21.8787 2.52515 21.8787H9.22681V14.4417H6.15063V10.9412H9.22681V8.27319C9.22681 5.23853 11.0334 3.56226 13.8005 3.56226C15.1257 3.56226 16.5115 3.79858 16.5115 3.79858V6.7771H14.9846C13.4802 6.7771 13.011 7.71069 13.011 8.66821V10.9412H16.3694L15.8323 14.4417H13.011V21.8787H19.7126C20.3342 21.8787 20.9304 21.6317 21.3699 21.1922C21.8095 20.7527 22.0564 20.1565 22.0564 19.5349V2.34741C22.0564 1.72581 21.8095 1.12967 21.3699 0.690131C20.9304 0.250592 20.3342 0.00366211 19.7126 0.00366211Z" fill="#2C4D53"/>
</svg>
