<svg width="312" height="64" viewBox="0 0 312 64" fill="none" xmlns="http://www.w3.org/2000/svg">
<path d="M82.7126 21.0037H65.5251C64.9035 21.0037 64.3074 21.2506 63.8679 21.6901C63.4283 22.1297 63.1814 22.7258 63.1814 23.3474V40.5349C63.1814 41.1565 63.4283 41.7527 63.8679 42.1922C64.3074 42.6317 64.9035 42.8787 65.5251 42.8787H72.2268V35.4417H69.1506V31.9412H72.2268V29.2732C72.2268 26.2385 74.0334 24.5623 76.8005 24.5623C78.1257 24.5623 79.5115 24.7986 79.5115 24.7986V27.7771H77.9846C76.4802 27.7771 76.011 28.7107 76.011 29.6682V31.9412H79.3694L78.8323 35.4417H76.011V42.8787H82.7126C83.3342 42.8787 83.9304 42.6317 84.3699 42.1922C84.8095 41.7527 85.0564 41.1565 85.0564 40.5349V23.3474C85.0564 22.7258 84.8095 22.1297 84.3699 21.6901C83.9304 21.2506 83.3342 21.0037 82.7126 21.0037Z" fill="#2C4D53"/>
<path d="M156.002 26.3308C152.897 26.3308 150.392 28.8357 150.392 31.9412C150.392 35.0466 152.897 37.5515 156.002 37.5515C159.108 37.5515 161.613 35.0466 161.613 31.9412C161.613 28.8357 159.108 26.3308 156.002 26.3308ZM156.002 35.5886C153.996 35.5886 152.355 33.9529 152.355 31.9412C152.355 29.9294 153.991 28.2937 156.002 28.2937C158.014 28.2937 159.65 29.9294 159.65 31.9412C159.65 33.9529 158.009 35.5886 156.002 35.5886ZM163.151 26.1013C163.151 26.8289 162.565 27.4099 161.842 27.4099C161.115 27.4099 160.534 26.824 160.534 26.1013C160.534 25.3787 161.12 24.7927 161.842 24.7927C162.565 24.7927 163.151 25.3787 163.151 26.1013ZM166.867 27.4294C166.784 25.6765 166.383 24.1238 165.099 22.8445C163.82 21.5652 162.267 21.1648 160.514 21.0769C158.708 20.9744 153.292 20.9744 151.486 21.0769C149.738 21.1599 148.185 21.5603 146.901 22.8396C145.617 24.1189 145.221 25.6716 145.133 27.4246C145.031 29.2312 145.031 34.6462 145.133 36.4529C145.216 38.2058 145.617 39.7585 146.901 41.0378C148.185 42.3171 149.733 42.7175 151.486 42.8054C153.292 42.908 158.708 42.908 160.514 42.8054C162.267 42.7224 163.82 42.322 165.099 41.0378C166.378 39.7585 166.779 38.2058 166.867 36.4529C166.969 34.6462 166.969 29.2361 166.867 27.4294ZM164.533 38.3914C164.152 39.3484 163.415 40.0857 162.453 40.4714C161.012 41.0427 157.594 40.9109 156.002 40.9109C154.411 40.9109 150.988 41.0378 149.552 40.4714C148.595 40.0906 147.858 39.3533 147.472 38.3914C146.901 36.9509 147.033 33.533 147.033 31.9412C147.033 30.3494 146.906 26.9265 147.472 25.491C147.853 24.5339 148.59 23.7966 149.552 23.4109C150.993 22.8396 154.411 22.9714 156.002 22.9714C157.594 22.9714 161.017 22.8445 162.453 23.4109C163.41 23.7917 164.147 24.5291 164.533 25.491C165.104 26.9314 164.972 30.3494 164.972 31.9412C164.972 33.533 165.104 36.9558 164.533 38.3914Z" fill="#2C4D53"/>
<path d="M245.542 24.1824C243.496 22.1316 240.772 21.0037 237.876 21.0037C231.9 21.0037 227.036 25.8669 227.036 31.8435C227.036 33.7527 227.534 35.6179 228.482 37.2634L226.944 42.8787L232.691 41.3699C234.273 42.2341 236.055 42.6882 237.871 42.6882H237.876C243.848 42.6882 248.819 37.825 248.819 31.8484C248.819 28.9529 247.588 26.2332 245.542 24.1824ZM237.876 40.8621C236.255 40.8621 234.668 40.4275 233.286 39.6072L232.959 39.4119L229.551 40.3054L230.459 36.9802L230.244 36.6384C229.341 35.2029 228.867 33.5476 228.867 31.8435C228.867 26.8777 232.91 22.8347 237.881 22.8347C240.288 22.8347 242.549 23.7722 244.248 25.4763C245.948 27.1804 246.992 29.4412 246.988 31.8484C246.988 36.8191 242.842 40.8621 237.876 40.8621ZM242.818 34.114C242.549 33.9773 241.216 33.323 240.967 33.2351C240.718 33.1423 240.537 33.0984 240.357 33.3718C240.176 33.6453 239.658 34.2507 239.497 34.4363C239.341 34.6169 239.18 34.6414 238.911 34.5046C237.32 33.7087 236.275 33.0837 235.225 31.282C234.947 30.8035 235.503 30.8376 236.021 29.8025C236.109 29.6218 236.065 29.4656 235.996 29.3289C235.928 29.1921 235.386 27.8591 235.161 27.3171C234.942 26.7898 234.717 26.863 234.551 26.8533C234.395 26.8435 234.214 26.8435 234.033 26.8435C233.853 26.8435 233.56 26.9119 233.311 27.1804C233.062 27.4539 232.364 28.1082 232.364 29.4412C232.364 30.7742 233.335 32.0632 233.467 32.2439C233.604 32.4246 235.376 35.1589 238.096 36.3357C239.815 37.0779 240.489 37.1414 241.348 37.0144C241.87 36.9363 242.949 36.3601 243.174 35.7253C243.399 35.0906 243.399 34.5486 243.33 34.4363C243.267 34.3142 243.086 34.2458 242.818 34.114Z" fill="#2C4D53"/>
</svg>
