<svg width="33" height="32" viewBox="0 0 33 32" fill="none" xmlns="http://www.w3.org/2000/svg">
<path d="M16.5 0C7.66129 0 0.5 7.16129 0.5 16C0.5 24.8387 7.66129 32 16.5 32C25.3387 32 32.5 24.8387 32.5 16C32.5 7.16129 25.3387 0 16.5 0ZM20.1839 22.5871L14.4935 18.4516C14.2935 18.3032 14.1774 18.071 14.1774 17.8258V6.96774C14.1774 6.54193 14.5258 6.19355 14.9516 6.19355H18.0484C18.4742 6.19355 18.8226 15.4258 18.8226 15.8516C19.171 16.1032 23.3387 19.5677 23.0871 19.9161L21.2677 22.4194C21.0161 22.7613 20.5323 22.8387 20.1839 22.5871Z" fill="#307373" fill-opacity="0.6"/>
</svg>
