<svg width="42" height="60" viewBox="0 0 42 60" fill="none" xmlns="http://www.w3.org/2000/svg">
<path d="M1.55346 18.338L-5.39781e-06 21.845H7.59936L8.17875 3.43659L1.55346 18.338ZM32.5219 1.92955L21.7233 -2.57156e-05L33.1181 20.7324L32.5219 1.92955ZM8.66578 26.2394L7.72531 23.1408H0.0755683L18.9606 60L8.66578 26.2394ZM8.83373 21.845H32.6814L25.8378 9.38026L20.766 0.140819L8.83373 21.845ZM33.7983 23.1267L22.5546 60L41.4312 23.1408H33.7983V23.1267ZM34.1257 5.21124L33.3364 3.43659L33.412 5.87321L33.9242 21.845H41.5068L34.1257 5.21124ZM8.77495 8.66195L8.38868 20.7183L19.7919 -2.57156e-05L8.99327 1.92955L8.77495 8.66195ZM32.9334 23.1267H8.58181L12.1422 34.8028L19.7919 50.037L32.9334 23.1267Z" fill="#2C4D54"/>
</svg>
