<svg width="33" height="32" viewBox="0 0 33 32" fill="none" xmlns="http://www.w3.org/2000/svg">
<path d="M10.1 16C13.195 16 15.7 12.4214 15.7 8C15.7 3.57857 13.195 0 10.1 0C7.005 0 4.5 3.57857 4.5 8C4.5 12.4214 7.005 16 10.1 16ZM13.94 18.2857H13.525C12.485 19 11.33 19.4286 10.1 19.4286C8.87 19.4286 7.72 19 6.675 18.2857H6.26C3.08 18.2857 0.5 21.9714 0.5 26.5143V28.5714C0.5 30.4643 1.575 32 2.9 32H17.3C18.625 32 19.7 30.4643 19.7 28.5714V26.5143C19.7 21.9714 17.12 18.2857 13.94 18.2857ZM24.5 16C27.15 16 29.3 12.9286 29.3 9.14286C29.3 5.35714 27.15 2.28571 24.5 2.28571C21.85 2.28571 19.7 5.35714 19.7 9.14286C19.7 12.9286 21.85 16 24.5 16ZM26.9 18.2857H26.71C26.015 18.6286 25.28 18.8571 24.5 18.8571C23.72 18.8571 22.985 18.6286 22.29 18.2857H22.1C21.08 18.2857 20.14 18.7071 19.315 19.3857C20.535 21.2643 21.3 23.7571 21.3 26.5143V29.2571C21.3 29.4143 21.275 29.5643 21.27 29.7143H30.1C31.425 29.7143 32.5 28.1786 32.5 26.2857C32.5 21.8643 29.995 18.2857 26.9 18.2857Z" fill="#307373"/>
</svg>
