<svg width="33" height="32" viewBox="0 0 33 32" fill="none" xmlns="http://www.w3.org/2000/svg">
<path d="M16.5 16C21.55 16 25.6429 12.4187 25.6429 8C25.6429 3.58125 21.55 0 16.5 0C11.45 0 7.35714 3.58125 7.35714 8C7.35714 12.4187 11.45 16 16.5 16ZM22.9 18H21.7071C20.1214 18.6375 18.3571 19 16.5 19C14.6429 19 12.8857 18.6375 11.2929 18H10.1C4.8 18 0.5 21.7625 0.5 26.4V29C0.5 30.6562 2.03571 32 3.92857 32H29.0714C30.9643 32 32.5 30.6562 32.5 29V26.4C32.5 21.7625 28.2 18 22.9 18Z" fill="#307373" fill-opacity="0.6"/>
</svg>
