<svg width="23" height="22" viewBox="0 0 23 22" fill="none" xmlns="http://www.w3.org/2000/svg">
<path d="M19.5422 3.18237C17.4963 1.13159 14.7717 0.00366211 11.8762 0.00366211C5.89966 0.00366211 1.03638 4.86694 1.03638 10.8435C1.03638 12.7527 1.53442 14.6179 2.48169 16.2634L0.943604 21.8787L6.69067 20.3699C8.27271 21.2341 10.0549 21.6882 11.8713 21.6882H11.8762C17.8479 21.6882 22.8186 16.825 22.8186 10.8484C22.8186 7.95288 21.5881 5.23315 19.5422 3.18237ZM11.8762 19.8621C10.2551 19.8621 8.66821 19.4275 7.28638 18.6072L6.95923 18.4119L3.55103 19.3054L4.45923 15.9802L4.24438 15.6384C3.34106 14.2029 2.86743 12.5476 2.86743 10.8435C2.86743 5.87769 6.9104 1.83472 11.8811 1.83472C14.2883 1.83472 16.5491 2.77222 18.2483 4.47632C19.9475 6.18042 20.9924 8.44116 20.9875 10.8484C20.9875 15.8191 16.842 19.8621 11.8762 19.8621ZM16.8176 13.114C16.5491 12.9773 15.2161 12.323 14.967 12.2351C14.718 12.1423 14.5374 12.0984 14.3567 12.3718C14.176 12.6453 13.6584 13.2507 13.4973 13.4363C13.3411 13.6169 13.1799 13.6414 12.9114 13.5046C11.3196 12.7087 10.2747 12.0837 9.22485 10.282C8.94653 9.80347 9.50317 9.83765 10.0208 8.80249C10.1086 8.62183 10.0647 8.46558 9.99634 8.32886C9.92798 8.19214 9.38599 6.85913 9.16138 6.31714C8.94165 5.78979 8.71704 5.86304 8.55103 5.85327C8.39478 5.84351 8.21411 5.84351 8.03345 5.84351C7.85278 5.84351 7.55981 5.91187 7.31079 6.18042C7.06177 6.45386 6.36353 7.10815 6.36353 8.44116C6.36353 9.77417 7.33521 11.0632 7.46704 11.2439C7.60376 11.4246 9.37622 14.1589 12.0959 15.3357C13.8147 16.0779 14.4885 16.1414 15.3479 16.0144C15.8704 15.9363 16.9495 15.3601 17.1741 14.7253C17.3987 14.0906 17.3987 13.5486 17.3303 13.4363C17.2668 13.3142 17.0862 13.2458 16.8176 13.114Z" fill="#2C4D53"/>
</svg>
